<mxfile host="app.diagrams.net" modified="2024-05-02T01:04:58.314Z" agent="Mozilla/5.0 (Windows NT 10.0; Win64; x64) AppleWebKit/537.36 (KHTML, like Gecko) Chrome/124.0.0.0 Safari/537.36 Edg/124.0.0.0" etag="d4W2W9qxD6fuecKls33E" version="24.3.1" type="github">
  <diagram name="第 1 页" id="qoLdiFCqsZCSUA59nAG3">
    <mxGraphModel dx="1044" dy="591" grid="1" gridSize="10" guides="1" tooltips="1" connect="1" arrows="1" fold="1" page="1" pageScale="1" pageWidth="827" pageHeight="1169" math="0" shadow="0">
      <root>
        <mxCell id="0" />
        <mxCell id="1" parent="0" />
        <mxCell id="PFtwk1hPvhhd0XtJ_q7h-1" value="" style="endArrow=classic;html=1;rounded=0;strokeWidth=2;fillColor=#d5e8d4;strokeColor=#82b366;" edge="1" parent="1">
          <mxGeometry width="50" height="50" relative="1" as="geometry">
            <mxPoint x="270" y="210" as="sourcePoint" />
            <mxPoint x="270" y="310" as="targetPoint" />
          </mxGeometry>
        </mxCell>
        <mxCell id="PFtwk1hPvhhd0XtJ_q7h-2" value="" style="endArrow=classic;html=1;rounded=0;strokeWidth=2;fillColor=#d5e8d4;strokeColor=#82b366;" edge="1" parent="1">
          <mxGeometry width="50" height="50" relative="1" as="geometry">
            <mxPoint x="290" y="210" as="sourcePoint" />
            <mxPoint x="290" y="310" as="targetPoint" />
          </mxGeometry>
        </mxCell>
        <mxCell id="PFtwk1hPvhhd0XtJ_q7h-3" value="" style="endArrow=classic;html=1;rounded=0;strokeWidth=2;fillColor=#d5e8d4;strokeColor=#82b366;" edge="1" parent="1">
          <mxGeometry width="50" height="50" relative="1" as="geometry">
            <mxPoint x="310" y="210" as="sourcePoint" />
            <mxPoint x="310" y="310" as="targetPoint" />
          </mxGeometry>
        </mxCell>
        <mxCell id="PFtwk1hPvhhd0XtJ_q7h-4" value="" style="endArrow=classic;html=1;rounded=0;strokeWidth=2;fillColor=#d5e8d4;strokeColor=#82b366;" edge="1" parent="1">
          <mxGeometry width="50" height="50" relative="1" as="geometry">
            <mxPoint x="330" y="210" as="sourcePoint" />
            <mxPoint x="330" y="310" as="targetPoint" />
          </mxGeometry>
        </mxCell>
        <mxCell id="PFtwk1hPvhhd0XtJ_q7h-5" value="" style="endArrow=classic;html=1;rounded=0;strokeWidth=2;fillColor=#d5e8d4;strokeColor=#82b366;" edge="1" parent="1">
          <mxGeometry width="50" height="50" relative="1" as="geometry">
            <mxPoint x="353" y="210" as="sourcePoint" />
            <mxPoint x="353" y="310" as="targetPoint" />
          </mxGeometry>
        </mxCell>
        <mxCell id="PFtwk1hPvhhd0XtJ_q7h-6" value="" style="endArrow=classic;html=1;rounded=0;strokeWidth=2;fillColor=#d5e8d4;strokeColor=#82b366;" edge="1" parent="1">
          <mxGeometry width="50" height="50" relative="1" as="geometry">
            <mxPoint x="373" y="210" as="sourcePoint" />
            <mxPoint x="373" y="310" as="targetPoint" />
          </mxGeometry>
        </mxCell>
        <mxCell id="PFtwk1hPvhhd0XtJ_q7h-7" value="" style="endArrow=classic;html=1;rounded=0;strokeWidth=2;fillColor=#d5e8d4;strokeColor=#82b366;" edge="1" parent="1">
          <mxGeometry width="50" height="50" relative="1" as="geometry">
            <mxPoint x="393" y="210" as="sourcePoint" />
            <mxPoint x="393" y="310" as="targetPoint" />
          </mxGeometry>
        </mxCell>
        <mxCell id="PFtwk1hPvhhd0XtJ_q7h-8" value="" style="endArrow=classic;html=1;rounded=0;strokeWidth=2;fillColor=#d5e8d4;strokeColor=#82b366;" edge="1" parent="1">
          <mxGeometry width="50" height="50" relative="1" as="geometry">
            <mxPoint x="413" y="210" as="sourcePoint" />
            <mxPoint x="413" y="310" as="targetPoint" />
          </mxGeometry>
        </mxCell>
        <mxCell id="PFtwk1hPvhhd0XtJ_q7h-9" value="&quot;if&quot;" style="text;html=1;align=center;verticalAlign=middle;whiteSpace=wrap;rounded=0;" vertex="1" parent="1">
          <mxGeometry x="140" y="360" width="60" height="30" as="geometry" />
        </mxCell>
        <mxCell id="PFtwk1hPvhhd0XtJ_q7h-10" value="__primitive_sync&lt;div&gt;(mask=FULL_MASK)&lt;/div&gt;" style="text;html=1;align=center;verticalAlign=middle;whiteSpace=wrap;rounded=0;" vertex="1" parent="1">
          <mxGeometry x="460" y="360" width="100" height="30" as="geometry" />
        </mxCell>
        <mxCell id="PFtwk1hPvhhd0XtJ_q7h-11" value="" style="endArrow=none;dashed=1;html=1;dashPattern=1 3;strokeWidth=2;rounded=0;" edge="1" parent="1">
          <mxGeometry width="50" height="50" relative="1" as="geometry">
            <mxPoint x="230" y="320" as="sourcePoint" />
            <mxPoint x="450" y="320" as="targetPoint" />
          </mxGeometry>
        </mxCell>
        <mxCell id="PFtwk1hPvhhd0XtJ_q7h-12" value="" style="shape=curlyBracket;whiteSpace=wrap;html=1;rounded=1;labelPosition=left;verticalLabelPosition=middle;align=right;verticalAlign=middle;" vertex="1" parent="1">
          <mxGeometry x="200" y="320" width="20" height="120" as="geometry" />
        </mxCell>
        <mxCell id="PFtwk1hPvhhd0XtJ_q7h-13" value="" style="endArrow=none;dashed=1;html=1;dashPattern=1 3;strokeWidth=2;rounded=0;" edge="1" parent="1">
          <mxGeometry width="50" height="50" relative="1" as="geometry">
            <mxPoint x="230" y="440" as="sourcePoint" />
            <mxPoint x="450" y="440" as="targetPoint" />
          </mxGeometry>
        </mxCell>
        <mxCell id="PFtwk1hPvhhd0XtJ_q7h-14" value="" style="endArrow=classic;html=1;rounded=0;strokeWidth=2;fillColor=#e1d5e7;strokeColor=#9673a6;" edge="1" parent="1">
          <mxGeometry width="50" height="50" relative="1" as="geometry">
            <mxPoint x="353" y="330" as="sourcePoint" />
            <mxPoint x="353" y="370" as="targetPoint" />
          </mxGeometry>
        </mxCell>
        <mxCell id="PFtwk1hPvhhd0XtJ_q7h-15" value="" style="endArrow=classic;html=1;rounded=0;strokeWidth=2;fillColor=#e1d5e7;strokeColor=#9673a6;" edge="1" parent="1">
          <mxGeometry width="50" height="50" relative="1" as="geometry">
            <mxPoint x="373" y="330" as="sourcePoint" />
            <mxPoint x="373" y="370" as="targetPoint" />
          </mxGeometry>
        </mxCell>
        <mxCell id="PFtwk1hPvhhd0XtJ_q7h-16" value="" style="endArrow=classic;html=1;rounded=0;strokeWidth=2;fillColor=#e1d5e7;strokeColor=#9673a6;" edge="1" parent="1">
          <mxGeometry width="50" height="50" relative="1" as="geometry">
            <mxPoint x="393" y="330" as="sourcePoint" />
            <mxPoint x="393" y="370" as="targetPoint" />
          </mxGeometry>
        </mxCell>
        <mxCell id="PFtwk1hPvhhd0XtJ_q7h-17" value="" style="endArrow=classic;html=1;rounded=0;strokeWidth=2;fillColor=#e1d5e7;strokeColor=#9673a6;" edge="1" parent="1">
          <mxGeometry width="50" height="50" relative="1" as="geometry">
            <mxPoint x="413" y="330" as="sourcePoint" />
            <mxPoint x="413" y="370" as="targetPoint" />
          </mxGeometry>
        </mxCell>
        <mxCell id="PFtwk1hPvhhd0XtJ_q7h-18" value="" style="shape=link;html=1;rounded=0;width=10.571428571428573;" edge="1" parent="1">
          <mxGeometry width="100" relative="1" as="geometry">
            <mxPoint x="250" y="380" as="sourcePoint" />
            <mxPoint x="440" y="380" as="targetPoint" />
          </mxGeometry>
        </mxCell>
        <mxCell id="PFtwk1hPvhhd0XtJ_q7h-19" value="" style="endArrow=classic;html=1;rounded=0;strokeWidth=1;fillColor=#e1d5e7;strokeColor=#9673a6;dashed=1;" edge="1" parent="1">
          <mxGeometry width="50" height="50" relative="1" as="geometry">
            <mxPoint x="270" y="330" as="sourcePoint" />
            <mxPoint x="270" y="370" as="targetPoint" />
          </mxGeometry>
        </mxCell>
        <mxCell id="PFtwk1hPvhhd0XtJ_q7h-20" value="" style="endArrow=classic;html=1;rounded=0;strokeWidth=1;fillColor=#e1d5e7;strokeColor=#9673a6;dashed=1;" edge="1" parent="1">
          <mxGeometry width="50" height="50" relative="1" as="geometry">
            <mxPoint x="290" y="330" as="sourcePoint" />
            <mxPoint x="290" y="370" as="targetPoint" />
          </mxGeometry>
        </mxCell>
        <mxCell id="PFtwk1hPvhhd0XtJ_q7h-21" value="" style="endArrow=classic;html=1;rounded=0;strokeWidth=1;fillColor=#e1d5e7;strokeColor=#9673a6;dashed=1;" edge="1" parent="1">
          <mxGeometry width="50" height="50" relative="1" as="geometry">
            <mxPoint x="310" y="330" as="sourcePoint" />
            <mxPoint x="310" y="370" as="targetPoint" />
          </mxGeometry>
        </mxCell>
        <mxCell id="PFtwk1hPvhhd0XtJ_q7h-22" value="" style="endArrow=classic;html=1;rounded=0;strokeWidth=1;fillColor=#e1d5e7;strokeColor=#9673a6;dashed=1;" edge="1" parent="1">
          <mxGeometry width="50" height="50" relative="1" as="geometry">
            <mxPoint x="330" y="330" as="sourcePoint" />
            <mxPoint x="330" y="370" as="targetPoint" />
          </mxGeometry>
        </mxCell>
        <mxCell id="PFtwk1hPvhhd0XtJ_q7h-23" value="&quot;else&quot;" style="text;html=1;align=center;verticalAlign=middle;whiteSpace=wrap;rounded=0;" vertex="1" parent="1">
          <mxGeometry x="140" y="480" width="60" height="30" as="geometry" />
        </mxCell>
        <mxCell id="PFtwk1hPvhhd0XtJ_q7h-24" value="" style="endArrow=none;dashed=1;html=1;dashPattern=1 3;strokeWidth=2;rounded=0;" edge="1" parent="1">
          <mxGeometry width="50" height="50" relative="1" as="geometry">
            <mxPoint x="230" y="440" as="sourcePoint" />
            <mxPoint x="450" y="440" as="targetPoint" />
          </mxGeometry>
        </mxCell>
        <mxCell id="PFtwk1hPvhhd0XtJ_q7h-25" value="" style="shape=curlyBracket;whiteSpace=wrap;html=1;rounded=1;labelPosition=left;verticalLabelPosition=middle;align=right;verticalAlign=middle;" vertex="1" parent="1">
          <mxGeometry x="200" y="440" width="20" height="120" as="geometry" />
        </mxCell>
        <mxCell id="PFtwk1hPvhhd0XtJ_q7h-26" value="" style="endArrow=none;dashed=1;html=1;dashPattern=1 3;strokeWidth=2;rounded=0;" edge="1" parent="1">
          <mxGeometry width="50" height="50" relative="1" as="geometry">
            <mxPoint x="230" y="560" as="sourcePoint" />
            <mxPoint x="450" y="560" as="targetPoint" />
          </mxGeometry>
        </mxCell>
        <mxCell id="PFtwk1hPvhhd0XtJ_q7h-27" value="" style="endArrow=classic;html=1;rounded=0;strokeWidth=2;fillColor=#dae8fc;strokeColor=#6c8ebf;" edge="1" parent="1">
          <mxGeometry width="50" height="50" relative="1" as="geometry">
            <mxPoint x="270" y="450" as="sourcePoint" />
            <mxPoint x="270" y="550" as="targetPoint" />
          </mxGeometry>
        </mxCell>
        <mxCell id="PFtwk1hPvhhd0XtJ_q7h-28" value="" style="endArrow=classic;html=1;rounded=0;strokeWidth=2;fillColor=#dae8fc;strokeColor=#6c8ebf;" edge="1" parent="1">
          <mxGeometry width="50" height="50" relative="1" as="geometry">
            <mxPoint x="290" y="450" as="sourcePoint" />
            <mxPoint x="290" y="550" as="targetPoint" />
          </mxGeometry>
        </mxCell>
        <mxCell id="PFtwk1hPvhhd0XtJ_q7h-29" value="" style="endArrow=classic;html=1;rounded=0;strokeWidth=2;fillColor=#dae8fc;strokeColor=#6c8ebf;" edge="1" parent="1">
          <mxGeometry width="50" height="50" relative="1" as="geometry">
            <mxPoint x="310" y="450" as="sourcePoint" />
            <mxPoint x="310" y="550" as="targetPoint" />
          </mxGeometry>
        </mxCell>
        <mxCell id="PFtwk1hPvhhd0XtJ_q7h-30" value="" style="endArrow=classic;html=1;rounded=0;strokeWidth=2;fillColor=#dae8fc;strokeColor=#6c8ebf;" edge="1" parent="1">
          <mxGeometry width="50" height="50" relative="1" as="geometry">
            <mxPoint x="330" y="450" as="sourcePoint" />
            <mxPoint x="330" y="550" as="targetPoint" />
          </mxGeometry>
        </mxCell>
        <mxCell id="PFtwk1hPvhhd0XtJ_q7h-36" value="sync" style="text;html=1;align=center;verticalAlign=middle;whiteSpace=wrap;rounded=0;" vertex="1" parent="1">
          <mxGeometry x="150" y="620" width="60" height="30" as="geometry" />
        </mxCell>
        <mxCell id="PFtwk1hPvhhd0XtJ_q7h-37" value="" style="shape=link;html=1;rounded=0;width=10.571428571428573;" edge="1" parent="1">
          <mxGeometry width="100" relative="1" as="geometry">
            <mxPoint x="240" y="634.71" as="sourcePoint" />
            <mxPoint x="430" y="634.71" as="targetPoint" />
          </mxGeometry>
        </mxCell>
        <mxCell id="PFtwk1hPvhhd0XtJ_q7h-42" value="" style="endArrow=classic;html=1;rounded=0;strokeWidth=2;fillColor=#dae8fc;strokeColor=#6c8ebf;" edge="1" parent="1">
          <mxGeometry width="50" height="50" relative="1" as="geometry">
            <mxPoint x="270" y="570" as="sourcePoint" />
            <mxPoint x="270" y="620" as="targetPoint" />
          </mxGeometry>
        </mxCell>
        <mxCell id="PFtwk1hPvhhd0XtJ_q7h-43" value="" style="endArrow=classic;html=1;rounded=0;strokeWidth=2;fillColor=#dae8fc;strokeColor=#6c8ebf;" edge="1" parent="1">
          <mxGeometry width="50" height="50" relative="1" as="geometry">
            <mxPoint x="290" y="570" as="sourcePoint" />
            <mxPoint x="290" y="620" as="targetPoint" />
          </mxGeometry>
        </mxCell>
        <mxCell id="PFtwk1hPvhhd0XtJ_q7h-44" value="" style="endArrow=classic;html=1;rounded=0;strokeWidth=2;fillColor=#dae8fc;strokeColor=#6c8ebf;" edge="1" parent="1">
          <mxGeometry width="50" height="50" relative="1" as="geometry">
            <mxPoint x="310" y="570" as="sourcePoint" />
            <mxPoint x="310" y="620" as="targetPoint" />
          </mxGeometry>
        </mxCell>
        <mxCell id="PFtwk1hPvhhd0XtJ_q7h-45" value="" style="endArrow=classic;html=1;rounded=0;strokeWidth=2;fillColor=#dae8fc;strokeColor=#6c8ebf;" edge="1" parent="1">
          <mxGeometry width="50" height="50" relative="1" as="geometry">
            <mxPoint x="330" y="570" as="sourcePoint" />
            <mxPoint x="330" y="620" as="targetPoint" />
          </mxGeometry>
        </mxCell>
        <mxCell id="PFtwk1hPvhhd0XtJ_q7h-46" value="" style="endArrow=classic;html=1;rounded=0;strokeWidth=1;fillColor=#dae8fc;strokeColor=#6c8ebf;dashed=1;" edge="1" parent="1">
          <mxGeometry width="50" height="50" relative="1" as="geometry">
            <mxPoint x="630" y="400" as="sourcePoint" />
            <mxPoint x="630" y="440" as="targetPoint" />
          </mxGeometry>
        </mxCell>
        <mxCell id="PFtwk1hPvhhd0XtJ_q7h-47" value="" style="endArrow=classic;html=1;rounded=0;strokeWidth=1;fillColor=#dae8fc;strokeColor=#6c8ebf;dashed=1;" edge="1" parent="1">
          <mxGeometry width="50" height="50" relative="1" as="geometry">
            <mxPoint x="373" y="570" as="sourcePoint" />
            <mxPoint x="373" y="620" as="targetPoint" />
          </mxGeometry>
        </mxCell>
        <mxCell id="PFtwk1hPvhhd0XtJ_q7h-48" value="" style="endArrow=classic;html=1;rounded=0;strokeWidth=1;fillColor=#dae8fc;strokeColor=#6c8ebf;dashed=1;" edge="1" parent="1">
          <mxGeometry width="50" height="50" relative="1" as="geometry">
            <mxPoint x="393" y="570" as="sourcePoint" />
            <mxPoint x="393" y="620" as="targetPoint" />
          </mxGeometry>
        </mxCell>
        <mxCell id="PFtwk1hPvhhd0XtJ_q7h-49" value="" style="endArrow=classic;html=1;rounded=0;strokeWidth=1;fillColor=#dae8fc;strokeColor=#6c8ebf;dashed=1;" edge="1" parent="1">
          <mxGeometry width="50" height="50" relative="1" as="geometry">
            <mxPoint x="413" y="570" as="sourcePoint" />
            <mxPoint x="413" y="620" as="targetPoint" />
          </mxGeometry>
        </mxCell>
        <mxCell id="PFtwk1hPvhhd0XtJ_q7h-50" value="" style="shape=flexArrow;endArrow=classic;html=1;rounded=0;" edge="1" parent="1">
          <mxGeometry width="50" height="50" relative="1" as="geometry">
            <mxPoint x="120" y="265" as="sourcePoint" />
            <mxPoint x="120" y="585" as="targetPoint" />
          </mxGeometry>
        </mxCell>
        <mxCell id="PFtwk1hPvhhd0XtJ_q7h-51" value="指令增长方向" style="text;html=1;align=center;verticalAlign=middle;whiteSpace=wrap;rounded=0;rotation=-90;" vertex="1" parent="1">
          <mxGeometry x="30" y="400" width="130" height="30" as="geometry" />
        </mxCell>
        <mxCell id="PFtwk1hPvhhd0XtJ_q7h-52" value="" style="shape=link;html=1;rounded=0;width=10.571428571428573;" edge="1" parent="1">
          <mxGeometry width="100" relative="1" as="geometry">
            <mxPoint x="600" y="310" as="sourcePoint" />
            <mxPoint x="670" y="310.28999999999996" as="targetPoint" />
          </mxGeometry>
        </mxCell>
        <mxCell id="PFtwk1hPvhhd0XtJ_q7h-53" value="线程同步栅栏" style="text;html=1;align=center;verticalAlign=middle;whiteSpace=wrap;rounded=0;" vertex="1" parent="1">
          <mxGeometry x="680" y="290" width="140" height="30" as="geometry" />
        </mxCell>
        <mxCell id="PFtwk1hPvhhd0XtJ_q7h-54" value="" style="endArrow=classic;html=1;rounded=0;strokeWidth=2;fillColor=#e1d5e7;strokeColor=#9673a6;" edge="1" parent="1">
          <mxGeometry width="50" height="50" relative="1" as="geometry">
            <mxPoint x="610" y="350" as="sourcePoint" />
            <mxPoint x="610" y="390" as="targetPoint" />
          </mxGeometry>
        </mxCell>
        <mxCell id="PFtwk1hPvhhd0XtJ_q7h-55" value="" style="endArrow=classic;html=1;rounded=0;strokeWidth=2;fillColor=#d5e8d4;strokeColor=#82b366;" edge="1" parent="1">
          <mxGeometry width="50" height="50" relative="1" as="geometry">
            <mxPoint x="630" y="350" as="sourcePoint" />
            <mxPoint x="630" y="390" as="targetPoint" />
          </mxGeometry>
        </mxCell>
        <mxCell id="PFtwk1hPvhhd0XtJ_q7h-56" value="" style="endArrow=classic;html=1;rounded=0;strokeWidth=2;fillColor=#dae8fc;strokeColor=#6c8ebf;" edge="1" parent="1">
          <mxGeometry width="50" height="50" relative="1" as="geometry">
            <mxPoint x="650" y="350" as="sourcePoint" />
            <mxPoint x="650" y="390" as="targetPoint" />
          </mxGeometry>
        </mxCell>
        <mxCell id="PFtwk1hPvhhd0XtJ_q7h-57" value="线程执行上下文" style="text;html=1;align=center;verticalAlign=middle;whiteSpace=wrap;rounded=0;" vertex="1" parent="1">
          <mxGeometry x="680" y="360" width="140" height="30" as="geometry" />
        </mxCell>
        <mxCell id="PFtwk1hPvhhd0XtJ_q7h-58" value="" style="endArrow=classic;html=1;rounded=0;strokeWidth=1;fillColor=#e1d5e7;strokeColor=#9673a6;dashed=1;" edge="1" parent="1">
          <mxGeometry width="50" height="50" relative="1" as="geometry">
            <mxPoint x="610" y="400" as="sourcePoint" />
            <mxPoint x="610" y="440" as="targetPoint" />
          </mxGeometry>
        </mxCell>
        <mxCell id="PFtwk1hPvhhd0XtJ_q7h-59" value="当前栅栏待同步线程" style="text;html=1;align=center;verticalAlign=middle;whiteSpace=wrap;rounded=0;" vertex="1" parent="1">
          <mxGeometry x="680" y="410" width="140" height="30" as="geometry" />
        </mxCell>
        <mxCell id="PFtwk1hPvhhd0XtJ_q7h-60" value="" style="endArrow=classic;html=1;rounded=0;strokeWidth=1;fillColor=#dae8fc;strokeColor=#6c8ebf;dashed=1;" edge="1" parent="1">
          <mxGeometry width="50" height="50" relative="1" as="geometry">
            <mxPoint x="353" y="570" as="sourcePoint" />
            <mxPoint x="353" y="620" as="targetPoint" />
          </mxGeometry>
        </mxCell>
      </root>
    </mxGraphModel>
  </diagram>
</mxfile>
